{"title":"Wanted (2008) 720p MKV x264 DTS BRrip [Pioneer]","uid":8233371,"size":3222512967,"categoryP":"video","categoryS":"hd___movies","magnet":"?xt=urn:btih:5b685810966bdea6692ce3cf7c38a86e991c2b2f&amp;dn=Wanted+%282008%29+720p+MKV+x264+DTS+BRrip+%5BPioneer%5D&amp;tr=udp%3A%2F%2Ftracker.openbittorrent.com%3A80&amp;tr=udp%3A%2F%2Fopen.demonii.com%3A1337&amp;tr=udp%3A%2F%2Ftracker.coppersurfer.tk%3A6969&amp;tr=udp%3A%2F%2Fexodus.desync.com%3A6969","seeders":1,"leechers":0,"uploader":"Pioneer47","files":-1,"time":1362779608,"description":"Slick, fast-paced action thriller in which a mundane office worker is transformed into a lethal assassin. Wesley Gibson (James McAvoy)'s life is one of dull routine. Trapped in a dead-end office job, unappreciated by his boss, and cheated on by his girlfriend, Wes has accepted that he's never going to amount to much in life. But all that changes one day when he meets the enigmatic Fox (Angelina Jolie), a member of a secret society of assassins named The Fraternity who want to recruit Wes into their ranks. Dealing out death as ordained by fate itself, the society's leader, Sloan (Morgan Freeman), tells Wes that the father he always thought was dead was actually one of their top assassins, and that following his recent murder, he must now avenge his father's death by releasing the dormant powers he has inherited. Although reticent at first, Wes quickly warms to both the task and the icily-sexy Fox, as he discovers his natural aptitude for the job at hand whilst despatching the bad guys with supremely energetic efficiency.\n\nStarring: James McAvoy, Morgan Freeman, Angelina Jolie, Terence Stamp, Thomas Kretschmann, Kristen Hager, Marc Warren, Marc Warren, David O'Hara\nDirector: Timur Bekmambetov\n\n &lt;a href=&quot;\nhttp://www.imdb.com/title/tt0493464/&quot; rel=&quot;nofollow&quot; target=&quot;_NEW&quot;&gt;\nhttp://www.imdb.com/title/tt0493464/&lt;/a&gt;\n\n\n &lt;a href=&quot;\nhttp://stpicz.com/3823_vlcsnap_2013_03_08_20h12m40s138_srvu.png&quot; rel=&quot;nofollow&quot; target=&quot;_NEW&quot;&gt;\nhttp://stpicz.com/3823_vlcsnap_2013_03_08_20h12m40s138_srvu.png&lt;/a&gt; &lt;a href=&quot;\nhttp://stpicz.com/1842_vlcsnap_2013_03_08_20h16m00s87_mfb5.png&quot; rel=&quot;nofollow&quot; target=&quot;_NEW&quot;&gt;\nhttp://stpicz.com/1842_vlcsnap_2013_03_08_20h16m00s87_mfb5.png&lt;/a&gt; &lt;a href=&quot;\nhttp://stpicz.com/4031_vlcsnap_2013_03_08_20h23m05s242_hq5g.png&quot; rel=&quot;nofollow&quot; target=&quot;_NEW&quot;&gt;\nhttp://stpicz.com/4031_vlcsnap_2013_03_08_20h23m05s242_hq5g.png&lt;/a&gt; &lt;a href=&quot;\nhttp://stpicz.com/1239_vlcsnap_2013_03_08_20h03m47s180_e6v0.png&quot; rel=&quot;nofollow&quot; target=&quot;_NEW&quot;&gt;\nhttp://stpicz.com/1239_vlcsnap_2013_03_08_20h03m47s180_e6v0.png&lt;/a&gt; &lt;a href=&quot;\nhttp://stpicz.com/9423_vlcsnap_2013_03_08_20h04m40s198_2db7.png&quot; rel=&quot;nofollow&quot; target=&quot;_NEW&quot;&gt;\nhttp://stpicz.com/9423_vlcsnap_2013_03_08_20h04m40s198_2db7.png&lt;/a&gt; &lt;a href=&quot;\nhttp://stpicz.com/4267_vlcsnap_2013_03_08_20h12m31s51_o9qa.png&quot; rel=&quot;nofollow&quot; target=&quot;_NEW&quot;&gt;\nhttp://stpicz.com/4267_vlcsnap_2013_03_08_20h12m31s51_o9qa.png&lt;/a&gt; &lt;a href=&quot;\nhttp://stpicz.com/4785_vlcsnap_2013_03_08_20h12m52s10_xliu.png&quot; rel=&quot;nofollow&quot; target=&quot;_NEW&quot;&gt;\nhttp://stpicz.com/4785_vlcsnap_2013_03_08_20h12m52s10_xliu.png&lt;/a&gt;\n\n\nGeneral\nUnique ID: 197869287397407392156810263262259903227 (0x94DC3D12BF82869A87C0E4BA467CFAFB)\nComplete name: D:Wanted (2008) 720p MKV x264 DTS BRrip [Pioneer].mkv\nFormat: Matroska\nFormat version: Version 4 / Version 2\nFile size: 3.00 GiB\nDuration: 1h 49mn\nOverall bit rate: 3 910 Kbps\nEncoded date: UTC 2013-03-04 22:03:13\nWriting application: mkvmerge v6.1.0 ('Old Devil') built on Mar  2 2013 14:32:37\nWriting library: libebml v1.3.0 + libmatroska v1.4.0\n\nVideo\nID: 1\nFormat: AVC\nFormat/Info: Advanced Video Codec\nFormat profile: &lt;a class=&quot;__cf_email__&quot; href=&quot;/cdn-cgi/l/email-protection&quot; data-cfemail=&quot;6f270608072f235c415e&quot;&gt;[email&amp;#160;protected]&lt;/a&gt;&lt;script cf-hash='f9e31' type=&quot;text/javascript&quot;&gt;\n/* &lt;![CDATA[ */!function(){try{var t=&quot;currentScript&quot;in document?document.currentScript:function(){for(var t=document.getElementsByTagName(&quot;script&quot;),e=t.length;e--;)if(t[e].getAttribute(&quot;cf-hash&quot;))return t[e]}();if(t&amp;&amp;t.previousSibling){var e,r,n,i,c=t.previousSibling,a=c.getAttribute(&quot;data-cfemail&quot;);if(a){for(e=&quot;&quot;,r=parseInt(a.substr(0,2),16),n=2;a.length-n;n+=2)i=parseInt(a.substr(n,2),16)^r,e+=String.fromCharCode(i);e=document.createTextNode(e),c.parentNode.replaceChild(e,c)}}}catch(u){}}();/* ]]&gt; */&lt;/script&gt;\nFormat settings, CABAC: Yes\nFormat settings, ReFrames: 5 frames\nCodec ID: V_MPEG4/ISO/AVC\nDuration: 1h 49mn\nBit rate: 2 400 Kbps\nWidth: 1 280 pixels\nHeight: 544 pixels\nDisplay aspect ratio: 2.35:1\nFrame rate mode: Constant\nFrame rate: 23.976 fps\nColor space: YUV\nChroma subsampling: 4:2:0\nBit depth: 8 bits\nScan type: Progressive\nBits/(Pixel*Frame): 0.144\nStream size: 1.78 GiB (59%)\nWriting library: x264 core 120\nLanguage: English\nDefault: Yes\nForced: No\nColor primaries: BT.709\nTransfer characteristics: BT.709\nMatrix coefficients: BT.709\n\nAudio\nID: 2\nFormat: DTS\nFormat/Info: Digital Theater Systems\nMode: 16\nFormat settings, Endianness: Big\nCodec ID: A_DTS\nDuration: 1h 49mn\nBit rate mode: Constant\nBit rate: 1 509 Kbps\nChannel(s): 6 channels\nChannel positions: Front: L C R, Side: L R, LFE\nSampling rate: 48.0 KHz\nBit depth: 24 bits\nCompression mode: Lossy\nStream size: 1.16 GiB (39%)\nLanguage: English\nDefault: Yes\nForced: No\n\nText\nID: 3\nFormat: UTF-8\nCodec ID: S_TEXT/UTF8\nCodec ID/Info: UTF-8 Plain Text\nLanguage: English\nDefault: Yes\nForced: No","torrent":{"xt":"urn:btih:5b685810966bdea6692ce3cf7c38a86e991c2b2f","amp;dn":"Wanted+%282008%29+720p+MKV+x264+DTS+BRrip+%5BPioneer%5D","amp;tr":["udp%3A%2F%2Ftracker.openbittorrent.com%3A80","udp%3A%2F%2Fopen.demonii.com%3A1337","udp%3A%2F%2Ftracker.coppersurfer.tk%3A6969","udp%3A%2F%2Fexodus.desync.com%3A6969"],"infoHash":"5b685810966bdea6692ce3cf7c38a86e991c2b2f","infoHashBuffer":{"type":"Buffer","data":[91,104,88,16,150,107,222,166,105,44,227,207,124,56,168,110,153,28,43,47]},"announce":[],"urlList":[]}}